<svg xmlns="http://www.w3.org/2000/svg" viewBox="0 0 730 730"><defs><style>.cls-1{fill:none;}.cls-2{fill:#52d2bc;}</style></defs><title>bg</title><g id="Layer_2" data-name="Layer 2"><g id="girl"><rect class="cls-1" width="730" height="730"/><path class="cls-2" d="M729.51,418.8c-3.41,35.34-34.47,57.81-42.63,63.25-27.48,18.37-43.69,10-70.42,24.27-36.29,19.42-34.87,50.13-58.49,82.52-15.3,21-36.26,36-59,46.89a242.42,242.42,0,0,1-35.54,13.48c-43,12.77-85.28,14.25-102.7,14.86-10.72.38-43.43,1.53-78.35-3.47-20.63-3-42-8.05-60.13-16.72-16.31-7.81-29.94-18.51-37.91-33.15-15.56-28.54-.48-44.47-19.29-64.4-30.83-32.69-90.13,4.21-132-26-41-29.54-44.34-115-7.08-149.73,26.07-24.26,53.87-20.18,68.51-47.4a62,62,0,0,0,1.7-55.2c-21.5-45.67-59.3-43.27-72.08-80.44-13.81-40.22,17.81-79.8,19.65-82.05,28.78-35,73.52-38.3,91.2-39.61,16.36-1.23,34,0,76.75,12.23,18.25,5.22,32.57,10,44.28,14.42C289,105,301.25,114.28,322.3,121.14a172.34,172.34,0,0,0,21.18,5.35,257.23,257.23,0,0,0,42,4.44c1.42,0,2.85.08,4.25.09a319.84,319.84,0,0,0,40.11-2.11c5.86-.66,11.46-1.45,16.75-2.32a354.28,354.28,0,0,0,43.25-9.81c49.54-14.64,66.51-33,99.35-25.58,38.32,8.68,58,43.45,60.76,48.55,22.51,41.27,4.91,84.55,1.76,92.31-13.72,33.71-34.39,38.67-31,56.36,4.22,22.17,50,17.08,81.54,53.53C721.3,364,732.54,387.43,729.51,418.8Z"/></g></g></svg>