<svg xmlns="http://www.w3.org/2000/svg" viewBox="0 0 730 730"><defs><style>.cls-1{fill:none;}.cls-2{fill:#52d2bc;}</style></defs><title>clipper</title><g id="Layer_2" data-name="Layer 2"><g id="girl"><rect class="cls-1" width="730" height="730"/><path class="cls-2" d="M730,.09H0v419H2C-4.76,456.72,5.87,500.79,33,520.35c41.91,30.19,101.21-6.71,132,26,18.81,19.93,3.73,35.86,19.29,64.4,8,14.64,21.6,25.34,37.91,33.15,18.1,8.67,39.5,13.76,60.13,16.72,34.92,5,67.63,3.85,78.35,3.47,17.42-.61,59.67-2.09,102.7-14.86A242.42,242.42,0,0,0,499,635.73c22.73-10.84,43.69-25.9,59-46.89,23.62-32.39,22.2-63.1,58.49-82.52,26.73-14.3,42.94-5.9,70.42-24.27,8.14-5.42,39-27.78,42.59-63H730Z"/></g></g></svg>