<svg xmlns="http://www.w3.org/2000/svg" viewBox="0 0 505.53 535.83"><defs><style>.cls-1{fill:#5193f4;}.cls-2{fill:#c8dbfb;}</style></defs><title>Asset 4</title><g id="Layer_2" data-name="Layer 2"><g id="girl"><polygon class="cls-1" points="102.67 531.1 82.95 524.23 65.59 535.83 66.64 515.81 49.87 503.87 70.23 498.37 77.22 479.38 88.77 496 109.86 496.21 96.63 511.98 102.67 531.1"/><polygon class="cls-1" points="489.12 110.58 472.02 98.6 452.16 105.04 458.61 86.06 445.73 70 466.82 70.25 478.72 53.88 485.3 73.02 505.54 78.96 488.51 90.54 489.12 110.58"/><polygon class="cls-2" points="468.61 462 477.93 489.29 505.22 498.61 477.93 507.93 468.61 535.22 459.29 507.93 432 498.61 459.29 489.29 468.61 462"/><polygon class="cls-2" points="36.61 0 45.93 27.29 73.22 36.61 45.93 45.93 36.61 73.22 27.29 45.93 0 36.61 27.29 27.29 36.61 0"/></g></g></svg>