<svg xmlns="http://www.w3.org/2000/svg" xmlns:xlink="http://www.w3.org/1999/xlink" viewBox="0 0 292.03 535.4"><defs><style>.cls-1{fill:#f8d5d5;}.cls-2{fill:url(#linear-gradient);}.cls-3{fill:#3b3c36;}.cls-4{fill:#e9e9e9;}.cls-5{fill:url(#linear-gradient-2);}.cls-6{fill:url(#linear-gradient-3);}.cls-7{fill:url(#linear-gradient-4);}.cls-8{fill:url(#linear-gradient-5);}.cls-9{fill:url(#linear-gradient-6);}.cls-10{fill:none;stroke:#000;stroke-miterlimit:10;}.cls-11{fill:#d4d4d4;}.cls-12{fill:#fffcf9;}.cls-13{fill:url(#linear-gradient-7);}.cls-14{fill:url(#linear-gradient-8);}.cls-15{fill:#393220;}.cls-16{fill:url(#linear-gradient-9);}.cls-17{fill:url(#linear-gradient-10);}</style><linearGradient id="linear-gradient" x1="151.68" y1="170.61" x2="151.68" y2="333" gradientUnits="userSpaceOnUse"><stop offset="0" stop-color="#f5b591"/><stop offset="1" stop-color="#e9e9e9" stop-opacity="0"/></linearGradient><linearGradient id="linear-gradient-2" x1="-91.41" y1="364.16" x2="104.48" y2="354.63" gradientUnits="userSpaceOnUse"><stop offset="0" stop-color="#27547d"/><stop offset="1" stop-color="#e9e9e9"/></linearGradient><linearGradient id="linear-gradient-3" x1="251.59" y1="578.8" x2="263.69" y2="349.89" xlink:href="#linear-gradient"/><linearGradient id="linear-gradient-4" x1="-49.34" y1="536.86" x2="217.06" y2="387.19" xlink:href="#linear-gradient-2"/><linearGradient id="linear-gradient-5" x1="247.28" y1="457.05" x2="236.69" y2="283.41" xlink:href="#linear-gradient-2"/><linearGradient id="linear-gradient-6" x1="69.39" y1="151.94" x2="177.39" y2="115.24" xlink:href="#linear-gradient"/><linearGradient id="linear-gradient-7" x1="212.41" y1="396.88" x2="167.94" y2="287.47" xlink:href="#linear-gradient-2"/><linearGradient id="linear-gradient-8" x1="128.21" y1="309.19" x2="156.03" y2="309.19" xlink:href="#linear-gradient-2"/><linearGradient id="linear-gradient-9" x1="124.36" y1="277.28" x2="177.3" y2="83.16" gradientUnits="userSpaceOnUse"><stop offset="0" stop-color="#211d12"/><stop offset="1" stop-color="#221e13" stop-opacity="0"/></linearGradient><linearGradient id="linear-gradient-10" x1="7.75" y1="483.33" x2="85.05" y2="468.51" xlink:href="#linear-gradient"/></defs><title>Asset 1</title><g id="Layer_2" data-name="Layer 2"><g id="girl"><path d="M124.38,240.83a1.83,1.83,0,0,1-.08-.25h0v0a.94.94,0,0,1,0-.09h0l-.25-.75c-.41-1.27-.81-2.67-1.22-4.24l-.21-.79-.21-.83c-4.2-17-5.19-19.66-9.55-30.66,2.21,1.62,4.36,3.05,6.36,4.3.55.35,1.09.68,1.61,1A88.12,88.12,0,0,1,124,228.4c.12,2.49.22,5.64.28,9.26h0a.34.34,0,0,1,0,.1v0C124.34,238.79,124.36,239.79,124.38,240.83Z"/><path class="cls-1" d="M182.56,246v.11s0,.07,0,.13,0,.49-.06.92c0,.24,0,.53-.07.85a.36.36,0,0,1,0,.1c0,.18,0,.37,0,.58v0l0,.33a2.45,2.45,0,0,1,0,.27c0,.12,0,.25,0,.38s0,.32,0,.49a1.79,1.79,0,0,0,0,.23c0,.16,0,.32-.05.48a1.71,1.71,0,0,1,0,.31c0,.23,0,.47-.07.72l0,.28c0,.26-.05.54-.09.82,0,0,0,.09,0,.14s0,.29-.05.44a1.49,1.49,0,0,0,0,.21c0,.13,0,.26-.05.39-.05.4-.1.81-.15,1.24,0,.21,0,.43-.08.65s-.07.5-.1.76l-.06.49a.78.78,0,0,0,0,.16c0,.17-.05.34-.08.51a1.23,1.23,0,0,1,0,.2,3.11,3.11,0,0,0,0,.32c0,.18,0,.35-.08.53l-.09.62c0,.17-.05.34-.08.52s0,.23,0,.34-.05.31-.07.46c-.14.92-.3,1.86-.46,2.82,0,.08,0,.16-.05.25s0,.33-.08.5l0,.15c-.06.31-.11.62-.17.93l-.15.83q-.24,1.26-.51,2.55c-.07.35-.15.71-.23,1.07s-.13.62-.2.92c0,.15-.07.31-.1.46s-.07.3-.11.46a2.8,2.8,0,0,1-.06.28c-.12.53-.25,1.05-.38,1.58a.29.29,0,0,1,0,.09c-.16.67-.33,1.33-.51,2-.11.42-.22.83-.34,1.25,0,.13-.07.25-.11.38-.12.44-.25.89-.38,1.33l-.12.4c0,.16-.1.31-.14.47-.16.49-.31,1-.47,1.47-.09.29-.19.58-.29.87s-.19.58-.3.87a.14.14,0,0,1,0,.06c-.14.41-.29.82-.44,1.23l-.06.16c-.08.23-.17.46-.25.68l-.15.38-.31.78-.12.29a1.17,1.17,0,0,1-.05.11l-.15.38-.09.22c-.07.16-.14.32-.22.48l0,.12c-.33.74-.66,1.47-1,2.18-.24.49-.48,1-.73,1.44-1.69,3.19-3.3,6.69-4.82,10.28-.72,1.73-1.43,3.48-2.11,5.22s-1.36,3.57-2,5.32-1.24,3.46-1.8,5.11l-1.08,3.21c-.08.26-.16.52-.25.77-1.09,3.35-2,6.29-2.65,8.53l-.21.73c-.16.54-.3,1-.42,1.46,0,.13-.07.25-.11.37l-.24.85s0,.06,0,.08c-.05.18-.09.34-.13.47a1.8,1.8,0,0,0-.05.19l-.07.24a1.12,1.12,0,0,1,0,.16h0a1.11,1.11,0,0,1-.07-.13l-.12-.19c-.28-.48-.85-1.47-1.66-2.9-.14-.26-.3-.53-.46-.82l-.34-.6c-.13-.25-.27-.5-.42-.77-.46-.83-1-1.75-1.49-2.74q-.48-.89-1-1.86c-1.14-2.16-2.41-4.61-3.75-7.31-.54-1.08-1.09-2.2-1.64-3.35-2.1-4.35-4.33-9.19-6.52-14.37-.4-1-.81-1.93-1.21-2.91-.6-1.47-1.19-2.95-1.78-4.46l.65.67A239,239,0,0,0,155,315c-.37-1.82-.81-3.84-1.33-6-.7-2.92-1.53-6.16-2.55-9.65a204.12,204.12,0,0,0-8.62-24,128.65,128.65,0,0,0-9-17.74c-2.27-3.66-4.11-6.16-5.76-9.12a43.72,43.72,0,0,1-3.31-7.56h0c0-1,0-2-.06-3v0a.34.34,0,0,0,0-.1h0c-.06-3.62-.16-6.77-.28-9.26a88.12,88.12,0,0,0-3.25-19.92,92.89,92.89,0,0,0,11,5.82c5.28,2.25,12.26,5.13,20.63,5.87l.59.05a44.38,44.38,0,0,0,10.91-.51A45.27,45.27,0,0,0,175.74,216a50.34,50.34,0,0,0,6.15-3.51Q182.22,229.2,182.56,246Z"/><path class="cls-2" d="M182.56,246v.11s0,.07,0,.13,0,.49-.06.92c0,.24,0,.53-.07.85a.36.36,0,0,1,0,.1c0,.18,0,.37,0,.58v0l0,.33a2.45,2.45,0,0,1,0,.27c0,.12,0,.25,0,.38s0,.32,0,.49a1.79,1.79,0,0,0,0,.23c0,.16,0,.32-.05.48a1.71,1.71,0,0,1,0,.31c0,.23,0,.47-.07.72l0,.28c0,.26-.05.54-.09.82,0,0,0,.09,0,.14s0,.29-.05.44a1.49,1.49,0,0,0,0,.21c0,.13,0,.26-.05.39-.05.4-.1.81-.15,1.24,0,.21,0,.43-.08.65s-.07.5-.1.76l-.06.49a.78.78,0,0,0,0,.16c0,.17-.05.34-.08.51a1.23,1.23,0,0,1,0,.2,3.11,3.11,0,0,0,0,.32c0,.18,0,.35-.08.53l-.09.62c0,.17-.05.34-.08.52s0,.23,0,.34-.05.31-.07.46c-.14.92-.3,1.86-.46,2.82,0,.08,0,.16-.05.25s0,.33-.08.5l0,.15c-.06.31-.11.62-.17.93l-.15.83q-.24,1.26-.51,2.55c-.07.35-.15.71-.23,1.07s-.13.62-.2.92c0,.15-.07.31-.1.46s-.07.3-.11.46a2.8,2.8,0,0,1-.06.28c-.12.53-.25,1.05-.38,1.58a.29.29,0,0,1,0,.09c-.16.67-.33,1.33-.51,2-.11.42-.22.83-.34,1.25,0,.13-.07.25-.11.38-.12.44-.25.89-.38,1.33l-.12.4c0,.16-.1.31-.14.47-.16.49-.31,1-.47,1.47-.09.29-.19.58-.29.87s-.19.58-.3.87a.14.14,0,0,1,0,.06c-.14.41-.29.82-.44,1.23l-.06.16c-.08.23-.17.46-.25.68l-.15.38-.31.78-.12.29a1.17,1.17,0,0,1-.05.11l-.15.38-.09.22c-.07.16-.14.32-.22.48l0,.12c-.33.74-.66,1.47-1,2.18-.24.49-.48,1-.73,1.44-1.69,3.19-3.3,6.69-4.82,10.28-.72,1.73-1.43,3.48-2.11,5.22s-1.36,3.57-2,5.32-1.24,3.46-1.8,5.11l-1.08,3.21c-.08.26-.16.52-.25.77-1.09,3.35-2,6.29-2.65,8.53l-.21.73c-.16.54-.3,1-.42,1.46,0,.13-.07.25-.11.37l-.24.85s0,.06,0,.08c-.05.18-.09.34-.13.47a1.8,1.8,0,0,0-.05.19l-.07.24a1.12,1.12,0,0,1,0,.16h0a1.11,1.11,0,0,1-.07-.13l-.12-.19c-.28-.48-.85-1.47-1.66-2.9-.14-.26-.3-.53-.46-.82l-.34-.6c-.13-.25-.27-.5-.42-.77-.46-.83-1-1.75-1.49-2.74q-.48-.89-1-1.86c-1.14-2.16-2.41-4.61-3.75-7.31-.54-1.08-1.09-2.2-1.64-3.35-2.1-4.35-4.33-9.19-6.52-14.37-.4-1-.81-1.93-1.21-2.91-.6-1.47-1.19-2.95-1.78-4.46l.65.67A239,239,0,0,0,155,315c-.37-1.82-.81-3.84-1.33-6-.7-2.92-1.53-6.16-2.55-9.65a204.12,204.12,0,0,0-8.62-24,128.65,128.65,0,0,0-9-17.74c-2.27-3.66-4.11-6.16-5.76-9.12a43.72,43.72,0,0,1-3.31-7.56h0c0-1,0-2-.06-3v0a.34.34,0,0,0,0-.1h0c-.06-3.62-.16-6.77-.28-9.26a88.12,88.12,0,0,0-3.25-19.92,92.89,92.89,0,0,0,11,5.82c5.28,2.25,12.26,5.13,20.63,5.87l.59.05a44.38,44.38,0,0,0,10.91-.51A45.27,45.27,0,0,0,175.74,216a50.34,50.34,0,0,0,6.15-3.51Q182.22,229.2,182.56,246Z"/><path class="cls-1" d="M124.33,237.66h0a.34.34,0,0,1,0,.1v-.11Z"/><path class="cls-3" d="M190.86,101.77a6,6,0,0,1-11.1,3.14l-.12-6.09h0a6,6,0,0,1,11.22,3Z"/><path class="cls-3" d="M207.66,77.15c-.39-.94-.76-1.87-1.13-2.81l.12,0A2.14,2.14,0,0,1,207.66,77.15Z"/><path class="cls-4" d="M87.51,354.25q-1.08,29.94-2.25,60.41a79.09,79.09,0,0,1-11.54,5.67c-22.85,9-49.52,7.68-70-2.25C-2.21,364.92-2.1,319.14,12,303.27a66.78,66.78,0,0,1,16.47-13.73A73.72,73.72,0,0,1,32,317.4a282.78,282.78,0,0,1-8,51,167.1,167.1,0,0,0,21-46,164.5,164.5,0,0,0,4-18,112.19,112.19,0,0,1,3,24,112.89,112.89,0,0,1-5,35,237.69,237.69,0,0,0,24-4.54c1.82-.43,3.58-.87,5.26-1.33l1.16-.31c3.5-1,6.71-1.9,9.6-2.82Z"/><path class="cls-5" d="M87.51,354.25q-1.08,29.94-2.25,60.41a79.09,79.09,0,0,1-11.54,5.67c-22.85,9-49.52,7.68-70-2.25C-2.21,364.92-2.1,319.14,12,303.27a66.78,66.78,0,0,1,16.47-13.73A73.72,73.72,0,0,1,32,317.4a282.78,282.78,0,0,1-8,51,167.1,167.1,0,0,0,21-46,164.5,164.5,0,0,0,4-18,112.19,112.19,0,0,1,3,24,112.89,112.89,0,0,1-5,35,237.69,237.69,0,0,0,24-4.54c1.82-.43,3.58-.87,5.26-1.33l1.16-.31c3.5-1,6.71-1.9,9.6-2.82Z"/><path class="cls-1" d="M286.79,403.94c-.22,2.35-.43,4.71-.65,7.07-3.77,41.15-7.68,82.87-11.53,124.39H239c-5.55-30.71-13.12-66.2-1.81-98.6A155,155,0,0,0,246,401.32Z"/><path class="cls-6" d="M286.79,403.94c-.22,2.35-.43,4.71-.65,7.07-3.77,41.15-7.68,82.87-11.53,124.39H239c-5.55-30.71-13.12-66.2-1.81-98.6A155,155,0,0,0,246,401.32Z"/><path class="cls-4" d="M246.94,387.79c-.11,4.77-.46,9.3-1,13.53a155,155,0,0,1-8.77,35.48c-11.31,32.4-3.74,67.89,1.81,98.6H80.57c1.56-40.23,3.17-80.72,4.69-120.74q1.17-30.42,2.25-60.41c15.83-5,26.26-8.51,36.53-17.85a66.39,66.39,0,0,0,9.34-10.52c7.72,1.26,15.73,3.8,22.65,8.51h0c.52-.42,17.26-14,34-15,15.37-.9,18.41,4.34,18.86,5.35-1.21-3-18-45-21.86-61.35-2.61-11.1-3.94-14.95-4.55-16.29,0-.43,0-.74.06-.92s0-.1,0-.13v0c.65.41,1.29.83,1.92,1.25,18.18,12.1,29.7,24.54,37,34.92a98.14,98.14,0,0,1,9.3,16.11c.54,1.23,1,2.34,1.42,3.34,5.58,13.82,8.3,30.35,11,46.7C245.31,361,247.27,373.3,246.94,387.79Z"/><path class="cls-7" d="M246.94,387.79c-.11,4.77-.46,9.3-1,13.53a155,155,0,0,1-8.77,35.48c-11.31,32.4-3.74,67.89,1.81,98.6H80.57c1.56-40.23,3.17-80.72,4.69-120.74q1.17-30.42,2.25-60.41c15.83-5,26.26-8.51,36.53-17.85a66.39,66.39,0,0,0,9.34-10.52c7.72,1.26,15.73,3.8,22.65,8.51h0c.52-.42,17.26-14,34-15,15.37-.9,18.41,4.34,18.86,5.35-1.21-3-18-45-21.86-61.35-2.61-11.1-3.94-14.95-4.55-16.29,0-.43,0-.74.06-.92s0-.1,0-.13v0c.65.41,1.29.83,1.92,1.25,18.18,12.1,29.7,24.54,37,34.92a98.14,98.14,0,0,1,9.3,16.11c.54,1.23,1,2.34,1.42,3.34,5.58,13.82,8.3,30.35,11,46.7C245.31,361,247.27,373.3,246.94,387.79Z"/><path class="cls-4" d="M124.32,239.66s0,.09,0,.27,0,.19,0,.31v.34h0v0a.94.94,0,0,1,0-.09h0l-.25-.75Z"/><path class="cls-4" d="M133.38,325.88A70.8,70.8,0,0,0,138,318.4c-2.55-8.15-6.08-19.93-9.83-34.4,2.27,2.57,4.73,5.24,7.37,8,.59,1.51,1.18,3,1.78,4.46.4,1,.81,1.95,1.21,2.91,2.19,5.18,4.42,10,6.52,14.37.55,1.15,1.1,2.27,1.64,3.35,1.34,2.7,2.61,5.15,3.75,7.31q.51,1,1,1.86c.53,1,1,1.91,1.49,2.74.15.27.29.52.42.77l.34.6.46.82c.81,1.43,1.38,2.42,1.66,2.9l.12.19a1.11,1.11,0,0,0,.07.13C149.11,329.68,141.1,327.14,133.38,325.88Z"/><path class="cls-4" d="M208.9,324.75c-.45-1-3.49-6.25-18.86-5.35-16.73,1-33.47,14.57-34,15a1.12,1.12,0,0,0,0-.16l.07-.24a1.8,1.8,0,0,1,.05-.19c0-.13.08-.29.13-.47,0,0,0-.05,0-.08l.24-.85c0-.12.07-.24.11-.37.12-.43.26-.92.42-1.46.07-.23.14-.47.21-.73.67-2.24,1.56-5.18,2.65-8.53.09-.25.17-.51.25-.77l1.08-3.21c.56-1.65,1.16-3.36,1.8-5.11s1.29-3.53,2-5.32,1.39-3.49,2.11-5.22c1.52-3.59,3.13-7.09,4.82-10.28.25-.47.49-.95.73-1.44.35-.71.68-1.44,1-2.18l.26-.6.09-.22c.07-.16.14-.33.2-.49l.12-.29c.11-.26.21-.52.31-.78l.15-.38c.08-.22.17-.45.25-.68l.06-.16c.16-.4.3-.82.44-1.23a.14.14,0,0,0,0-.06c.13-.35.25-.7.37-1.05l.38-1.16c.1-.33.2-.67.31-1,0-.16.09-.31.14-.47l.12-.4c.13-.44.26-.89.38-1.33,0-.13.08-.25.11-.38.12-.42.23-.84.34-1.25.18-.67.35-1.33.51-2a.29.29,0,0,0,0-.09c.13-.53.26-1,.38-1.58s.26-1.12.38-1.67.22-1,.32-1.52q.27-1.29.51-2.55c.11-.59.22-1.18.32-1.76l0-.15c0-.26.09-.5.13-.75.16-1,.32-1.9.46-2.82,0-.16.05-.31.07-.46s0-.22,0-.34.05-.35.08-.52l.09-.62,0-.24c0-.1,0-.2,0-.29a3.11,3.11,0,0,1,0-.32c0-.24.06-.48.1-.71a.78.78,0,0,1,0-.16l.06-.49c0-.26.07-.51.1-.76s0-.44.08-.65c.05-.43.1-.84.15-1.24,0-.13,0-.25,0-.37l0-.23,0-.33,0-.25c0-.28.06-.56.09-.82l0-.28c0-.25.05-.49.07-.72a1.71,1.71,0,0,0,0-.31c0-.16,0-.32.05-.48a1.79,1.79,0,0,1,0-.23c0-.34.05-.66.08-1,0-.06,0-.12,0-.18l0-.33v0c0-.24,0-.46,0-.67a0,0,0,0,0,0,0c0-.32.05-.6.07-.84h0c0-.42.05-.72.07-.9,0,.18,0,.49-.06.92.61,1.34,1.94,5.19,4.55,16.29C190.9,279.79,207.69,321.75,208.9,324.75Z"/><path class="cls-4" d="M124.33,237.67a.34.34,0,0,1,0,.1v-.11h0Z"/><path class="cls-4" d="M291.69,349.67q-2.4,26.88-4.9,54.27L246,401.32c.5-4.23.85-8.76,1-13.53.33-14.49-1.63-26.8-3.71-39.44-2.69-16.35-5.41-32.88-11-46.7-.4-1-.88-2.11-1.42-3.34a98.14,98.14,0,0,0-9.3-16.11c-7.34-10.38-18.86-22.82-37-34.92-.63-.42-1.27-.84-1.92-1.25V246c2.74,1,49.22,17.84,73.48,30.45a30.62,30.62,0,0,1,3.25,2c8.56,5.81,17.41,16.94,24.21,28.71l2.71,5.7c1.52,3.92,2.41,7.72,3.83,11.62C290.82,329.88,292.82,338,291.69,349.67Z"/><path class="cls-8" d="M291.69,349.67q-2.4,26.88-4.9,54.27L246,401.32c.5-4.23.85-8.76,1-13.53.33-14.49-1.63-26.8-3.71-39.44-2.69-16.35-5.41-32.88-11-46.7-.4-1-.88-2.11-1.42-3.34a98.14,98.14,0,0,0-9.3-16.11c-7.34-10.38-18.86-22.82-37-34.92-.63-.42-1.27-.84-1.92-1.25V246c2.74,1,49.22,17.84,73.48,30.45a30.62,30.62,0,0,1,3.25,2c8.56,5.81,17.41,16.94,24.21,28.71l2.71,5.7c1.52,3.92,2.41,7.72,3.83,11.62C290.82,329.88,292.82,338,291.69,349.67Z"/><path class="cls-4" d="M286.21,312.78l-2.71-5.7A41.18,41.18,0,0,1,286.21,312.78Z"/><path class="cls-4" d="M182.56,246v.11s0,.07,0,.13,0,.48-.07.9h0c0,.24,0,.52-.07.84l0-2Z"/><path class="cls-1" d="M217.24,97.82v0c-1.83-3.57-3.64-7.28-5.37-11-1.47-3.18-2.88-6.4-4.2-9.61a.5.5,0,0,1,0,.13,2.15,2.15,0,0,1-2.88,1,12,12,0,0,0-4.16-.54,33.7,33.7,0,0,0-6.5.72c-4.88,1-10.81,4.75-14.69,7.54-1.61,1.16-2.87,2.16-3.55,2.7l-.58.48a2.17,2.17,0,0,1-1.39.51,2.14,2.14,0,0,1-1.64-.76,2.11,2.11,0,0,1-.21-.31,2.14,2.14,0,0,1,.46-2.73,80.14,80.14,0,0,1,6.81-5.07c4.05-2.69,9.29-5.65,13.94-6.58,8.52-1.7,12.51-.22,13.31.14-.65-1.65-1.28-3.3-1.87-4.94A74.16,74.16,0,0,0,194.5,49.65a59,59,0,0,0-7.41-8.25,66.6,66.6,0,0,0-8.72-6.69c-.85-.54-1.65-1-2.38-1.46-1.41-.83-2.58-1.44-3.37-1.85A73.67,73.67,0,0,0,165.1,28a57.58,57.58,0,0,0-15.57-3.55,25.54,25.54,0,0,0-3.49.94c-1.76.65-8.51,4.55-8.77,4.74l-.1.07c-8.67,6.46-13,15.63-15.13,20.19-1.7,3.62-3.16,10.13-6,23-.21,1-.41,1.88-.6,2.77-.07,1.22-.11,2.42-.14,3.61v0c-.13,5.58-.23,10.7-.75,15.63a34,34,0,0,1,10.61-.34c3.46.49,6,.9,7.53,1.19s3.52.69,3.37,2.73a2.32,2.32,0,0,1-2.6,2.08,2.16,2.16,0,0,1-1.44-.55c-1.05-.21-3.18-.58-7.47-1.19a31.48,31.48,0,0,0-10.62.57h0c-.15.89-.33,1.77-.52,2.65-2.33,10.69-3.17,8.84-7.62,19.21a73,73,0,0,0-5.67,21.91,52.79,52.79,0,0,0,.21,11.68c.71,5.25,1.44,10.53,2.51,16a130.35,130.35,0,0,0,6.67,23.39c1.3,3.32,2.38,6.05,3.31,8.4,2.21,1.62,4.36,3.05,6.36,4.3.55.35,1.09.68,1.61,1a92.89,92.89,0,0,0,11,5.82c5.28,2.25,12.26,5.13,20.63,5.87l.59.05a44.38,44.38,0,0,0,10.91-.51A45.27,45.27,0,0,0,175.74,216a50.34,50.34,0,0,0,6.15-3.51,59.64,59.64,0,0,0,6.84-5.33c2.49-2.22,4.58-4.4,6.33-6.25,3.84-4.06,22.77-24.84,26.16-65.42.2-2.33.41-4.91.61-7.7C220.94,116.05,220,103.25,217.24,97.82Zm-99.38,25a6,6,0,1,1,6-6A6,6,0,0,1,117.86,122.77Zm61.78-24h0a6,6,0,1,1,.12,6.1,5.84,5.84,0,0,1-.9-3.14A5.91,5.91,0,0,1,179.64,98.82Zm-1.88,41.71.3.27a27.94,27.94,0,0,1-2.52,3.16,20.79,20.79,0,0,1-10.5,4.93c-3.44.67-6.94,1-10.42,1.46a2.76,2.76,0,0,1-.64,0c0-.07,0-.14,0-.22Z"/><path class="cls-9" d="M217.24,97.82v0c-1.83-3.57-3.64-7.28-5.37-11-1.47-3.18-2.88-6.4-4.2-9.61a.5.5,0,0,1,0,.13,2.15,2.15,0,0,1-2.88,1,12,12,0,0,0-4.16-.54,33.7,33.7,0,0,0-6.5.72c-4.88,1-10.81,4.75-14.69,7.54-1.61,1.16-2.87,2.16-3.55,2.7l-.58.48a2.17,2.17,0,0,1-1.39.51,2.14,2.14,0,0,1-1.64-.76,2.11,2.11,0,0,1-.21-.31,2.14,2.14,0,0,1,.46-2.73,80.14,80.14,0,0,1,6.81-5.07c4.05-2.69,9.29-5.65,13.94-6.58,8.52-1.7,12.51-.22,13.31.14-.65-1.65-1.28-3.3-1.87-4.94A74.16,74.16,0,0,0,194.5,49.65a59,59,0,0,0-7.41-8.25,66.6,66.6,0,0,0-8.72-6.69c-.85-.54-1.65-1-2.38-1.46-1.41-.83-2.58-1.44-3.37-1.85A73.67,73.67,0,0,0,165.1,28a57.58,57.58,0,0,0-15.57-3.55,25.54,25.54,0,0,0-3.49.94c-1.76.65-8.51,4.55-8.77,4.74l-.1.07c-8.67,6.46-13,15.63-15.13,20.19-1.7,3.62-3.16,10.13-6,23-.21,1-.41,1.88-.6,2.77-.07,1.22-.11,2.42-.14,3.61v0c-.13,5.58-.23,10.7-.75,15.63a34,34,0,0,1,10.61-.34c3.46.49,6,.9,7.53,1.19s3.52.69,3.37,2.73a2.32,2.32,0,0,1-2.6,2.08,2.16,2.16,0,0,1-1.44-.55c-1.05-.21-3.18-.58-7.47-1.19a31.48,31.48,0,0,0-10.62.57h0c-.15.89-.33,1.77-.52,2.65-2.33,10.69-3.17,8.84-7.62,19.21a73,73,0,0,0-5.67,21.91,52.79,52.79,0,0,0,.21,11.68c.71,5.25,1.44,10.53,2.51,16a130.35,130.35,0,0,0,6.67,23.39c1.3,3.32,2.38,6.05,3.31,8.4,2.21,1.62,4.36,3.05,6.36,4.3.55.35,1.09.68,1.61,1a92.89,92.89,0,0,0,11,5.82c5.28,2.25,12.26,5.13,20.63,5.87l.59.05a44.38,44.38,0,0,0,10.91-.51A45.27,45.27,0,0,0,175.74,216a50.34,50.34,0,0,0,6.15-3.51,59.64,59.64,0,0,0,6.84-5.33c2.49-2.22,4.58-4.4,6.33-6.25,3.84-4.06,22.77-24.84,26.16-65.42.2-2.33.41-4.91.61-7.7C220.94,116.05,220,103.25,217.24,97.82Zm-99.38,25a6,6,0,1,1,6-6A6,6,0,0,1,117.86,122.77Zm61.78-24h0a6,6,0,1,1,.12,6.1,5.84,5.84,0,0,1-.9-3.14A5.91,5.91,0,0,1,179.64,98.82Zm-1.88,41.71.3.27a27.94,27.94,0,0,1-2.52,3.16,20.79,20.79,0,0,1-10.5,4.93c-3.44.67-6.94,1-10.42,1.46a2.76,2.76,0,0,1-.64,0c0-.07,0-.14,0-.22Z"/><circle class="cls-1" cx="117.86" cy="116.77" r="6"/><path class="cls-1" d="M190.86,101.77a6,6,0,0,1-11.1,3.14,5.84,5.84,0,0,1-.9-3.14,5.91,5.91,0,0,1,.78-3h0a6,6,0,0,1,11.22,3Z"/><path class="cls-1" d="M207.66,77.15c-.39-.94-.76-1.87-1.13-2.81l.12,0A2.14,2.14,0,0,1,207.66,77.15Z"/><path class="cls-10" d="M128.52,331.06v0h0"/><path class="cls-1" d="M136.09,228.17H136v-.26C136.05,228,136.07,228.08,136.09,228.17Z"/><circle cx="117.86" cy="116.77" r="6"/><path d="M190.86,101.77a6,6,0,0,1-11.1,3.14,5.84,5.84,0,0,1-.9-3.14,5.91,5.91,0,0,1,.78-3h0a6,6,0,0,1,11.22,3Z"/><path class="cls-3" d="M190.43,167.4a55.34,55.34,0,0,1-10,7.37,49.52,49.52,0,0,1-5.7,2.8,44,44,0,0,1-19.24,3.3A46,46,0,0,1,143,178.51l12.47-2.92,24.87-5.83Z"/><path class="cls-11" d="M136.09,228.17H136v-.26C136.05,228,136.07,228.08,136.09,228.17Z"/><path d="M207.66,77.15a.5.5,0,0,1,0,.13,2.15,2.15,0,0,1-2.88,1,12,12,0,0,0-4.16-.54,33.7,33.7,0,0,0-6.5.72c-4.88,1-10.81,4.75-14.69,7.54-2.45,1.77-4.09,3.15-4.13,3.18a2.17,2.17,0,0,1-1.39.51,2.16,2.16,0,0,1-1.39-3.8,80.14,80.14,0,0,1,6.81-5.07c4.05-2.69,9.29-5.65,13.94-6.58,8.52-1.7,12.51-.22,13.31.14C206.9,75.28,207.27,76.21,207.66,77.15Z"/><path d="M207.66,77.15c-.39-.94-.76-1.87-1.13-2.81l.12,0A2.14,2.14,0,0,1,207.66,77.15Z"/><path class="cls-3" d="M207.66,77.15c-.39-.94-.76-1.87-1.13-2.81l.12,0A2.14,2.14,0,0,1,207.66,77.15Z"/><path class="cls-3" d="M178.06,140.8a27.94,27.94,0,0,1-2.52,3.16,20.79,20.79,0,0,1-10.5,4.93c-3.44.67-6.94,1-10.42,1.46a2.76,2.76,0,0,1-.64,0c0-.07,0-.14,0-.22l23.82-9.55Z"/><path class="cls-12" d="M208.9,324.75c-.45-1-3.49-6.25-18.86-5.35-16.73,1-33.47,14.57-34,15a1.12,1.12,0,0,0,0-.16l.07-.24a1.8,1.8,0,0,1,.05-.19c0-.13.08-.29.13-.47,0,0,0-.05,0-.08l.24-.85c0-.12.07-.24.11-.37.12-.43.26-.92.42-1.46.07-.23.14-.47.21-.73.67-2.24,1.56-5.18,2.65-8.53.09-.25.17-.51.25-.77l1.08-3.21c.56-1.65,1.16-3.36,1.8-5.11s1.29-3.53,2-5.32,1.39-3.49,2.11-5.22c1.52-3.59,3.13-7.09,4.82-10.28.25-.47.49-.95.73-1.44.35-.71.68-1.44,1-2.18l0-.12c.08-.16.15-.32.22-.48l.09-.22.15-.38a1.17,1.17,0,0,0,.05-.11l.12-.29.31-.78.15-.38c.08-.22.17-.45.25-.68l.06-.16c.15-.41.3-.82.44-1.23a.14.14,0,0,0,0-.06c.13-.35.25-.7.37-1.05s.15-.46.22-.69.11-.32.16-.47c.1-.33.2-.67.31-1,0-.16.09-.31.14-.47l.12-.4c.13-.44.26-.89.38-1.33,0-.13.08-.25.11-.38.12-.42.23-.83.34-1.25.18-.66.35-1.32.51-2a.29.29,0,0,0,0-.09c.13-.53.26-1,.38-1.58a2.8,2.8,0,0,0,.06-.28c.11-.46.22-.93.32-1.39l.09-.45c.08-.36.16-.72.23-1.07q.27-1.29.51-2.55l.15-.83c.1-.53.19-1.06.28-1.58,0-.09,0-.17.05-.25.16-1,.32-1.9.46-2.82,0-.15.05-.3.07-.46s0-.22,0-.34.05-.35.08-.52l.09-.62,0-.24.09-.61a1.23,1.23,0,0,0,0-.2c.06-.39.11-.78.16-1.16s.07-.51.1-.76,0-.44.08-.65c.05-.43.1-.84.15-1.24,0-.13,0-.25,0-.37a0,0,0,0,1,0,0,1.49,1.49,0,0,1,0-.21l0-.33s0-.08,0-.11,0-.09,0-.14c0-.28.06-.56.09-.82l0-.28c0-.25.05-.49.07-.72a1.71,1.71,0,0,0,0-.31c0-.16,0-.32.05-.48a1.79,1.79,0,0,1,0-.23c0-.31.05-.6.08-.87v-.09c0-.06,0-.12,0-.18l0-.33v0c0-.24,0-.46,0-.67a0,0,0,0,0,0,0c0-.32.05-.6.07-.84h0c.61,1.34,1.94,5.19,4.55,16.29C190.9,279.79,207.69,321.75,208.9,324.75Z"/><path class="cls-13" d="M208.9,324.75c-.45-1-3.49-6.25-18.86-5.35-16.73,1-33.47,14.57-34,15a1.12,1.12,0,0,0,0-.16l.07-.24a1.8,1.8,0,0,1,.05-.19c0-.13.08-.29.13-.47,0,0,0-.05,0-.08l.24-.85c0-.12.07-.24.11-.37.12-.43.26-.92.42-1.46.07-.23.14-.47.21-.73.67-2.24,1.56-5.18,2.65-8.53.09-.25.17-.51.25-.77l1.08-3.21c.56-1.65,1.16-3.36,1.8-5.11s1.29-3.53,2-5.32,1.39-3.49,2.11-5.22c1.52-3.59,3.13-7.09,4.82-10.28.25-.47.49-.95.73-1.44.35-.71.68-1.44,1-2.18l0-.12c.08-.16.15-.32.22-.48l.09-.22.15-.38a1.17,1.17,0,0,0,.05-.11l.12-.29.31-.78.15-.38c.08-.22.17-.45.25-.68l.06-.16c.15-.41.3-.82.44-1.23a.14.14,0,0,0,0-.06c.13-.35.25-.7.37-1.05s.15-.46.22-.69.11-.32.16-.47c.1-.33.2-.67.31-1,0-.16.09-.31.14-.47l.12-.4c.13-.44.26-.89.38-1.33,0-.13.08-.25.11-.38.12-.42.23-.83.34-1.25.18-.66.35-1.32.51-2a.29.29,0,0,0,0-.09c.13-.53.26-1,.38-1.58a2.8,2.8,0,0,0,.06-.28c.11-.46.22-.93.32-1.39l.09-.45c.08-.36.16-.72.23-1.07q.27-1.29.51-2.55l.15-.83c.1-.53.19-1.06.28-1.58,0-.09,0-.17.05-.25.16-1,.32-1.9.46-2.82,0-.15.05-.3.07-.46s0-.22,0-.34.05-.35.08-.52l.09-.62,0-.24.09-.61a1.23,1.23,0,0,0,0-.2c.06-.39.11-.78.16-1.16s.07-.51.1-.76,0-.44.08-.65c.05-.43.1-.84.15-1.24,0-.13,0-.25,0-.37a0,0,0,0,1,0,0,1.49,1.49,0,0,1,0-.21l0-.33s0-.08,0-.11,0-.09,0-.14c0-.28.06-.56.09-.82l0-.28c0-.25.05-.49.07-.72a1.71,1.71,0,0,0,0-.31c0-.16,0-.32.05-.48a1.79,1.79,0,0,1,0-.23c0-.31.05-.6.08-.87v-.09c0-.06,0-.12,0-.18l0-.33v0c0-.24,0-.46,0-.67a0,0,0,0,0,0,0c0-.32.05-.6.07-.84h0c.61,1.34,1.94,5.19,4.55,16.29C190.9,279.79,207.69,321.75,208.9,324.75Z"/><path class="cls-4" d="M124.31,239.78v.15c0,.09,0,.19,0,.31s0,.2,0,.32a.94.94,0,0,1,0-.09h0C124.28,240.14,124.3,239.9,124.31,239.78Z"/><path class="cls-14" d="M133.38,325.88A70.8,70.8,0,0,0,138,318.4c-2.55-8.15-6.08-19.93-9.83-34.4,2.27,2.57,4.73,5.24,7.37,8,.59,1.51,1.18,3,1.78,4.46.4,1,.81,1.95,1.21,2.91,2.19,5.18,4.42,10,6.52,14.37.55,1.15,1.1,2.27,1.64,3.35,1.34,2.7,2.61,5.15,3.75,7.31q.51,1,1,1.86c.53,1,1,1.91,1.49,2.74.15.27.29.52.42.77l.34.6c.16.29.32.56.46.82.81,1.43,1.38,2.42,1.66,2.9l.12.19a1.11,1.11,0,0,0,.07.13C149.11,329.68,141.1,327.14,133.38,325.88Z"/><path class="cls-15" d="M260,256.4c0,8.09-.34,15.47-.75,22a30.62,30.62,0,0,0-3.25-2c-24.26-12.61-70.74-29.46-73.48-30.45q-.33-16.74-.67-33.49a59.64,59.64,0,0,0,6.84-5.33c2.49-2.22,4.58-4.4,6.33-6.25,3.84-4.06,22.77-24.84,26.16-65.42.2-2.33.41-4.91.61-7.7-.89-11.71-1.8-24.51-4.59-29.94v0c-3.38-6.59-6.69-13.63-9.57-20.65a2.14,2.14,0,0,0-1-2.76l-.12,0c-.65-1.65-1.28-3.3-1.87-4.94A74.16,74.16,0,0,0,194.5,49.65a59,59,0,0,0-7.41-8.25,66.6,66.6,0,0,0-8.72-6.69c-.85-.54-1.65-1-2.38-1.46-1.41-.83-2.58-1.44-3.37-1.85A73.67,73.67,0,0,0,165.1,28a57.58,57.58,0,0,0-15.57-3.55,25.54,25.54,0,0,0-3.49.94c-1.76.65-8.51,4.55-8.77,4.74l-.1.07c-8.67,6.46-13,15.63-15.13,20.19-1.7,3.62-3.16,10.13-6,23-.21,1-.41,1.88-.6,2.77-.07,1.23-.11,2.44-.14,3.64-.13,5.58-.23,10.7-.75,15.63a65.2,65.2,0,0,0-17.37,5.91,2.15,2.15,0,0,0,2,3.8,63.13,63.13,0,0,1,14.73-5.21c-.15.89-.33,1.77-.52,2.65-2.33,10.69-3.17,8.84-7.62,19.21a73,73,0,0,0-5.67,21.91,52.79,52.79,0,0,0,.21,11.68c.71,5.25,1.44,10.53,2.51,16a130.35,130.35,0,0,0,6.67,23.39c1.3,3.32,2.38,6.05,3.31,8.4,4.36,11,5.35,13.68,9.55,30.66l.21.83.21.79c.41,1.57.81,3,1.22,4.24l.25.75h0a.94.94,0,0,0,0,.09v0h0c0,1.67-.07,5.27.16,8,0-2.72,0-5.32-.07-7.76a43.72,43.72,0,0,0,3.31,7.56c1.65,3,3.49,5.46,5.76,9.12a128.65,128.65,0,0,1,9,17.74,204.12,204.12,0,0,1,8.62,24c1,3.49,1.85,6.73,2.55,9.65.52,2.19,1,4.21,1.33,6a239,239,0,0,1-18.75-22.31l-.65-.67c-2.64-2.74-5.1-5.41-7.37-8,3.75,14.47,7.28,26.25,9.83,34.4a70.8,70.8,0,0,1-4.66,7.48A66.39,66.39,0,0,1,124,336.4c-10.27,9.34-20.7,12.83-36.53,17.85l-.47.15c-2.89.92-6.1,1.87-9.6,2.82l-1.16.31c-1.68.46-3.44.9-5.26,1.33a237.69,237.69,0,0,1-24,4.54,112.89,112.89,0,0,0,5-35,112.19,112.19,0,0,0-3-24,164.5,164.5,0,0,1-4,18,167.1,167.1,0,0,1-21,46,282.78,282.78,0,0,0,8-51,73.72,73.72,0,0,0-3.6-27.86c-4.74-14.91-12.52-27.2-14.5-42.7C12.61,236.35,10,223.4,12,202.4c1.45-17,7-35,18-74C38,100.24,41.55,82.2,46.62,71.27,47.85,68.63,49,66.36,50,64.4c5.16-9.78,11.5-21.56,23.19-33.35a89.51,89.51,0,0,1,19.29-16.9C95.8,12,113.39.82,134.68.41h.39c10.33-.88,27.65-1,37.25,6.94C183.94,13.85,201.94,25.08,210,36.4,221,51.78,223.15,65.92,226.75,84l1.82,8.69c8.87,40.66,13.65,33.93,22.47,78.74C254.83,190.66,260.24,218.91,260,256.4Z"/><path class="cls-16" d="M260,256.4c0,8.09-.34,15.47-.75,22a30.62,30.62,0,0,0-3.25-2c-24.26-12.61-70.74-29.46-73.48-30.45q-.33-16.74-.67-33.49a59.64,59.64,0,0,0,6.84-5.33c2.49-2.22,4.58-4.4,6.33-6.25,3.84-4.06,22.77-24.84,26.16-65.42.2-2.33.41-4.91.61-7.7-.89-11.71-1.8-24.51-4.59-29.94v0c-3.38-6.59-6.69-13.63-9.57-20.65a2.14,2.14,0,0,0-1-2.76l-.12,0c-.65-1.65-1.28-3.3-1.87-4.94A74.16,74.16,0,0,0,194.5,49.65a59,59,0,0,0-7.41-8.25,66.6,66.6,0,0,0-8.72-6.69c-.85-.54-1.65-1-2.38-1.46-1.41-.83-2.58-1.44-3.37-1.85A73.67,73.67,0,0,0,165.1,28a57.58,57.58,0,0,0-15.57-3.55,25.54,25.54,0,0,0-3.49.94c-1.76.65-8.51,4.55-8.77,4.74l-.1.07c-8.67,6.46-13,15.63-15.13,20.19-1.7,3.62-3.16,10.13-6,23-.21,1-.41,1.88-.6,2.77-.07,1.23-.11,2.44-.14,3.64-.13,5.58-.23,10.7-.75,15.63a65.2,65.2,0,0,0-17.37,5.91,2.15,2.15,0,0,0,2,3.8,63.13,63.13,0,0,1,14.73-5.21c-.15.89-.33,1.77-.52,2.65-2.33,10.69-3.17,8.84-7.62,19.21a73,73,0,0,0-5.67,21.91,52.79,52.79,0,0,0,.21,11.68c.71,5.25,1.44,10.53,2.51,16a130.35,130.35,0,0,0,6.67,23.39c1.3,3.32,2.38,6.05,3.31,8.4,4.36,11,5.35,13.68,9.55,30.66l.21.83.21.79c.41,1.57.81,3,1.22,4.24l.25.75h0a.94.94,0,0,0,0,.09v0h0c0,1.67-.07,5.27.16,8,0-2.72,0-5.32-.07-7.76a43.72,43.72,0,0,0,3.31,7.56c1.65,3,3.49,5.46,5.76,9.12a128.65,128.65,0,0,1,9,17.74,204.12,204.12,0,0,1,8.62,24c1,3.49,1.85,6.73,2.55,9.65.52,2.19,1,4.21,1.33,6a239,239,0,0,1-18.75-22.31l-.65-.67c-2.64-2.74-5.1-5.41-7.37-8,3.75,14.47,7.28,26.25,9.83,34.4a70.8,70.8,0,0,1-4.66,7.48A66.39,66.39,0,0,1,124,336.4c-10.27,9.34-20.7,12.83-36.53,17.85l-.47.15c-2.89.92-6.1,1.87-9.6,2.82l-1.16.31c-1.68.46-3.44.9-5.26,1.33a237.69,237.69,0,0,1-24,4.54,112.89,112.89,0,0,0,5-35,112.19,112.19,0,0,0-3-24,164.5,164.5,0,0,1-4,18,167.1,167.1,0,0,1-21,46,282.78,282.78,0,0,0,8-51,73.72,73.72,0,0,0-3.6-27.86c-4.74-14.91-12.52-27.2-14.5-42.7C12.61,236.35,10,223.4,12,202.4c1.45-17,7-35,18-74C38,100.24,41.55,82.2,46.62,71.27,47.85,68.63,49,66.36,50,64.4c5.16-9.78,11.5-21.56,23.19-33.35a89.51,89.51,0,0,1,19.29-16.9C95.8,12,113.39.82,134.68.41h.39c10.33-.88,27.65-1,37.25,6.94C183.94,13.85,201.94,25.08,210,36.4,221,51.78,223.15,65.92,226.75,84l1.82,8.69c8.87,40.66,13.65,33.93,22.47,78.74C254.83,190.66,260.24,218.91,260,256.4Z"/><path class="cls-3" d="M124.45,248.6c-.23-2.74-.19-6.34-.16-8l.09.24h0C124.41,243.28,124.44,245.88,124.45,248.6Z"/><path class="cls-1" d="M85.26,414.66c-1.52,40-3.13,80.51-4.69,120.74H22.62C15.19,498,7.9,456.17,3.68,418.08c20.52,9.93,47.19,11.29,70,2.25A79.09,79.09,0,0,0,85.26,414.66Z"/><path class="cls-17" d="M85.26,414.66c-1.52,40-3.13,80.51-4.69,120.74H22.62C15.19,498,7.9,456.17,3.68,418.08c20.52,9.93,47.19,11.29,70,2.25A79.09,79.09,0,0,0,85.26,414.66Z"/><path d="M136.06,99a2.32,2.32,0,0,1-2.6,2.08,2.16,2.16,0,0,1-1.44-.55c-1.05-.21-3.18-.58-7.47-1.19a31.48,31.48,0,0,0-10.62.57h0a63.13,63.13,0,0,0-14.73,5.21,2.15,2.15,0,0,1-2-3.8,65.2,65.2,0,0,1,17.37-5.91,34,34,0,0,1,10.61-.34c3.46.49,6,.9,7.53,1.19S136.21,97,136.06,99Z"/></g></g></svg>