<svg xmlns="http://www.w3.org/2000/svg" viewBox="0 0 690.15 549.44"><defs><style>.cls-1{fill:#5193f4;}</style></defs><title>Asset 3</title><g id="Layer_2" data-name="Layer 2"><g id="girl"><path class="cls-1" d="M320.68,549.44l-3.88,0,0-4,3.85,0c5.28,0,10.51-.09,16-.27l.14,4C331.27,549.35,326,549.44,320.68,549.44Zm-13.88-.21c-6.82-.2-13.54-.56-20-1.07l.31-4c6.38.5,13,.86,19.79,1.06Zm40-.46-.17-4c4.55-.19,11.55-.54,19.81-1.21l.32,4C358.41,548.23,351.35,548.57,346.77,548.77Zm-69.92-1.53c-2.77-.3-5.54-.63-8.24-1-4-.53-7.87-1.12-11.61-1.77l.68-3.94c3.69.64,7.55,1.22,11.45,1.74,2.67.35,5.41.68,8.14,1Zm99.85-.61-.42-4c6.69-.69,13.31-1.54,19.67-2.51l.6,4C390.13,545.08,383.45,545.93,376.7,546.63Zm-129.56-4c-6.89-1.48-13.43-3.2-19.45-5.13l1.23-3.81c5.89,1.89,12.3,3.58,19.06,5Zm159.29-.15-.71-3.94c6.62-1.2,13.14-2.58,19.37-4.09l.94,3.88C419.73,539.83,413.13,541.23,406.43,542.44Zm29.3-6.69-1.07-3.85c1.26-.35,2.53-.72,3.8-1.09,5.14-1.52,10.19-3.17,15-4.93l1.37,3.76c-4.9,1.78-10,3.47-15.25,5C438.31,535,437,535.4,435.73,535.75Zm-217.54-1.66c-2.34-.92-4.63-1.89-6.79-2.88a111.73,111.73,0,0,1-11.4-6l2.07-3.43a104.84,104.84,0,0,0,11,5.77c2.1,1,4.32,1.9,6.59,2.79Zm246-8.09-1.53-3.7c3-1.25,6-2.56,8.85-3.91,3.05-1.44,6.07-3,9-4.52l1.9,3.52c-3,1.59-6,3.15-9.16,4.61C470.3,523.38,467.27,524.72,464.2,526Zm-272.6-6.53a67.37,67.37,0,0,1-14.19-14.71l3.28-2.28a63.75,63.75,0,0,0,13.36,13.83Zm299.5-7.11L489,509a145.73,145.73,0,0,0,16-11.36l2.53,3.1A150,150,0,0,1,491.1,512.36Zm-318.81-16.5a59,59,0,0,1-5.41-19.73l4-.42a55.07,55.07,0,0,0,5,18.44ZM515.14,494l-2.76-2.9a118.76,118.76,0,0,0,13-14.59l3.2,2.41A123.65,123.65,0,0,1,515.14,494Zm19.2-23.42L531,468.47a165.24,165.24,0,0,0,9.33-17.3l3.61,1.72A172.92,172.92,0,0,1,534.34,470.6Zm-368.16-4.48c-.4-6-1.08-11.95-4.91-18l3.38-2.14c4.33,6.84,5.1,13.57,5.52,19.88Zm381.93-22.27-3.62-1.69a149.42,149.42,0,0,1,9.42-17.81l3.36,2.16A146.17,146.17,0,0,0,548.11,443.85Zm-392.9-2.91a38.73,38.73,0,0,0-16.47-9l1.07-3.85a42.53,42.53,0,0,1,18.12,9.9Zm-75.42-9.63,0-4c6.26-.07,12.63-.47,18.78-.85l1-.06.25,4-1,.06C92.58,430.84,86.16,431.24,79.79,431.31Zm-10.09-.22a86,86,0,0,1-20.06-3.36l1.16-3.83a81.82,81.82,0,0,0,19.13,3.2Zm59.57-.9a101.44,101.44,0,0,0-11.16-.55c-2.52,0-5.27.06-8.42.2l-.17-4c3.2-.14,6-.2,8.59-.2a107.22,107.22,0,0,1,11.61.57ZM40.08,424a61.44,61.44,0,0,1-7.68-4.5,59.36,59.36,0,0,1-8.89-7.56l2.88-2.78a54.41,54.41,0,0,0,15.45,11.24ZM563,418.73l-3-2.6a67.72,67.72,0,0,1,15.47-13.3l2.14,3.38A63.77,63.77,0,0,0,563,418.73ZM17,404A83.92,83.92,0,0,1,7.4,386.08l3.73-1.46a80.27,80.27,0,0,0,9.11,17.1Zm569.11-2.5-1.71-3.61a85.84,85.84,0,0,1,19.26-6.41l.85,3.91A81.84,81.84,0,0,0,586.09,401.53Zm28.1-8-.71-3.93a99.12,99.12,0,0,0,18.85-4.91l1.45,3.73A102.52,102.52,0,0,1,614.19,393.57ZM643,384.13l-1.93-3.5c1.95-1.07,3.93-2.27,5.9-3.57a104,104,0,0,0,10.1-7.57l2.58,3.06a111.36,111.36,0,0,1-10.48,7.86C647.13,381.76,645.06,383,643,384.13ZM4.19,376.45A112.83,112.83,0,0,1,.53,356.53l4-.37A109.53,109.53,0,0,0,8,375.37Zm662.93-10.8-2.85-2.8a88.17,88.17,0,0,0,12.09-15.23l3.4,2.11A91.86,91.86,0,0,1,667.12,365.65ZM0,346.42v-1.08a115.84,115.84,0,0,1,1.57-19.1l3.94.66A112.28,112.28,0,0,0,4,345.34v1Zm684.54-5.73-3.66-1.62a59.34,59.34,0,0,0,4.9-18.53l.07-.78,4,.34-.07.81A63.52,63.52,0,0,1,684.55,340.69Zm-677-23.33-3.86-1a88.68,88.68,0,0,1,7.41-18.94l3.52,1.9A84.74,84.74,0,0,0,7.58,317.36ZM686.15,310a76.87,76.87,0,0,0-2.89-19.13l3.85-1.1a81,81,0,0,1,3,20.13ZM19.8,291.09l-3.22-2.37a61.91,61.91,0,0,1,8-9,80,80,0,0,1,6.51-5.37l2.38,3.21a79.54,79.54,0,0,0-6.19,5.11A59,59,0,0,0,19.8,291.09ZM680,281.77a91.76,91.76,0,0,0-9.58-16.93l3.26-2.31a95.34,95.34,0,0,1,10,17.67ZM41.63,272.26l-2-3.46a168.48,168.48,0,0,1,17.49-8.47l.63-.27,1.6,3.67-.63.27A165,165,0,0,0,41.63,272.26Zm26.86-12.7L66.72,256c6.88-3.4,11.69-6.78,15.58-11l2.93,2.72C81,252.29,75.83,255.94,68.49,259.56Zm596-2.48c-1.35-1.64-2.81-3.31-4.32-5a82.93,82.93,0,0,0-9.38-8.87l2.52-3.11a87.38,87.38,0,0,1,9.83,9.3c1.55,1.71,3,3.42,4.43,5.1ZM91.35,239.35l-3.48-2,.45-.8a53,53,0,0,0,5.89-17.2l4,.62a57.32,57.32,0,0,1-6.34,18.5Zm551.51-1.8a115.07,115.07,0,0,0-17.36-9l1.56-3.69a119.79,119.79,0,0,1,18,9.31Zm-26.55-12.61q-2.8-1-5.48-2c-4.81-1.73-9.35-3.37-13.26-5.15l1.65-3.64c3.77,1.71,8.24,3.32,13,5l5.51,2Zm-27.72-12.52a16.61,16.61,0,0,1-5.93-9.61,19.49,19.49,0,0,1-.41-3.89,17.19,17.19,0,0,1,1.38-6.74l3.69,1.53a13.35,13.35,0,0,0-1.07,5.21,15.44,15.44,0,0,0,.33,3.1,12.65,12.65,0,0,0,4.59,7.35ZM94.82,209.81a54.77,54.77,0,0,0-3.89-18.71l3.7-1.5a58.47,58.47,0,0,1,4.19,20.09Zm497.62-23.88-3.08-2.55c1-1.19,2-2.42,3.15-3.72A141.55,141.55,0,0,0,601.77,168l3.28,2.29a146.4,146.4,0,0,1-9.51,12C594.45,183.55,593.41,184.76,592.44,185.93ZM86.58,182.48A81.5,81.5,0,0,0,75,167l2.89-2.76A85.71,85.71,0,0,1,90,180.47ZM610.42,161.7l-3.5-1.93a95.4,95.4,0,0,0,4.66-9.76c.63-1.52,1.77-4.3,3-8.17l3.8,1.25c-1.32,4-2.49,6.87-3.12,8.41A100,100,0,0,1,610.42,161.7ZM67.84,160.35A181.76,181.76,0,0,0,52.23,148.9l-.27-.19,2.25-3.31.27.19a187.15,187.15,0,0,1,15.94,11.7ZM43.74,143c-6.59-4.83-11.17-9.14-14.86-14l3.17-2.43c3.45,4.51,7.78,8.57,14.05,13.16Zm577.42-9.65-3.9-.91A105.5,105.5,0,0,0,620,113.09l4,.18A110.63,110.63,0,0,1,621.16,133.33ZM23.46,120.24a56.73,56.73,0,0,1-2.27-5.4A59.24,59.24,0,0,1,18,100.48l4-.39a55.12,55.12,0,0,0,3,13.39c.63,1.73,1.34,3.41,2.11,5ZM620,103.35a84.91,84.91,0,0,0-3.32-19.13l3.83-1.14a88.31,88.31,0,0,1,3.48,20ZM21.78,90.47l-4-.25a79,79,0,0,1,4-20l3.79,1.26A75.21,75.21,0,0,0,21.78,90.47ZM613.29,75.11a79.21,79.21,0,0,0-3.82-7.59,88.94,88.94,0,0,0-6.06-9.14l3.21-2.4A96,96,0,0,1,613,65.54a83.55,83.55,0,0,1,4,8ZM29.18,62.43l-3.64-1.65a113.42,113.42,0,0,1,10-17.63l3.28,2.28A111.12,111.12,0,0,0,29.18,62.43Zm338.65-.21h-1.35c-1.33,0-2.68,0-4-.05-2.89,0-5.8-.15-8.65-.3l.2-4c2.81.14,5.68.24,8.54.29,1.33,0,2.66.05,4,.05h1.34c2,0,4,0,5.93-.06l.08,4Q370.86,62.22,367.83,62.22Zm16-.43-.22-4c6.5-.34,13.13-.91,19.72-1.68l.46,4C397.15,60.86,390.44,61.44,383.86,61.79Zm-40.08-.63c-6.75-.6-13.45-1.48-19.91-2.6l.69-3.94c6.35,1.1,12.93,2,19.57,2.56Zm70-2.36-.57-4c2.19-.32,4.33-.66,6.41-1,4.35-.72,8.76-1.54,13.09-2.42l.8,3.92c-4.38.89-8.83,1.72-13.23,2.44Q417.09,58.31,413.75,58.8ZM314,56.6c-4.05-.92-7.83-1.92-11.53-3.07-2.63-.81-5.18-1.68-7.8-2.66l1.39-3.75c2.56,1,5,1.8,7.59,2.59,3.61,1.11,7.28,2.09,11.23,3Zm129.25-3.41-.91-3.89c6-1.42,12-3,17.61-4.64l1.52-.45L462.63,48l-1.54.46C455.38,50.18,449.38,51.76,443.26,53.19Zm153.93-2.35a95.45,95.45,0,0,0-14.48-13l2.35-3.23a98.84,98.84,0,0,1,15.09,13.57ZM285.36,47.08c-3.17-1.38-6.34-2.84-9.69-4.38-2.67-1.23-5.46-2.51-8.45-3.84l1.63-3.65c3,1.34,5.8,2.62,8.49,3.86,3.34,1.53,6.49,3,9.62,4.35ZM472.17,45l-1.27-3.79c5.91-2,11.81-4.18,18.56-6.87l1.48,3.71C484.13,40.78,478.16,43,472.17,45ZM44.85,37.82l-3-2.69A90.75,90.75,0,0,1,57.15,21.72L59.44,25A87,87,0,0,0,44.85,37.82Zm213.29-2.89c-6-2.5-12-4.81-18.31-7.08l-.16-.06L241,24l.16.06c6.42,2.29,12.48,4.63,18.51,7.15Zm242-.64-1.53-3.7.47-.19c6.7-2.77,12.49-5.16,18.21-7.08l1.27,3.8c-5.59,1.87-11.32,4.23-18,7Zm74.34-1.72a76,76,0,0,0-17.93-7.26l1-3.87a80.51,80.51,0,0,1,18.88,7.64Zm-344.22-8c-5.93-2-12.31-3.94-19-5.88l1.12-3.84c6.69,2,13.11,3.94,19.09,5.93ZM528,24.5l-.84-3.91a61.62,61.62,0,0,1,20.43-1.05l-.46,4a58,58,0,0,0-6.66-.39h0A58.82,58.82,0,0,0,528,24.5ZM67.71,19.84l-1.94-3.49A112.86,112.86,0,0,1,84.31,8.2L85.59,12A109,109,0,0,0,67.71,19.84ZM201.8,16l-3.54-1c-5.57-1.51-10.84-2.87-15.67-4l.94-3.88c4.86,1.18,10.17,2.54,15.77,4.06l3.56,1ZM95,9.21,94,5.33a160.29,160.29,0,0,1,19.83-3.7l.5,4A155.92,155.92,0,0,0,95,9.21Zm77.94-.45C165.66,7.17,159.3,6,153.51,5.25l.54-4c5.89.8,12.35,2,19.74,3.57ZM124.16,4.6l-.33-4,2.48-.2A116.73,116.73,0,0,1,144,.26l-.26,4c-2.58-.16-5-.25-7.51-.25-3.1,0-6.13.13-9.54.4Z"/></g></g></svg>